<svg xmlns="http://www.w3.org/2000/svg" viewBox="0 0 24 24" height="24" width="24" id="Send-Email-2-Alternate--Streamline-Ultimate.svg"><desc>Send Email 2 Alternate Streamline Icon: https://streamlinehq.com</desc><path d="M23.46 0.24a1.07 1.07 0 0 0 -1.13 -0.13L1.27 11.1a2 2 0 0 0 -0.14 3.43l5.94 3.74v4.12a1.5 1.5 0 0 0 2.55 1.05l2.19 -2.19 3.88 2.44a2 2 0 0 0 1.8 0.16 2 2 0 0 0 1.18 -1.37l5.1 -21.25a1.11 1.11 0 0 0 -0.31 -0.99ZM17.3 5a0.24 0.24 0 0 1 0.31 0.07 0.24 0.24 0 0 1 0 0.32L8 16.26a0.24 0.24 0 0 1 -0.32 0l-5.09 -3.17a0.24 0.24 0 0 1 -0.11 -0.22 0.26 0.26 0 0 1 0.13 -0.22ZM9.07 21.16v-1.63l1 0.63Zm7.77 0.5a0.26 0.26 0 0 1 -0.15 0.17 0.26 0.26 0 0 1 -0.23 0l-6.61 -4.18a0.23 0.23 0 0 1 -0.12 -0.18 0.25 0.25 0 0 1 0.06 -0.2L20.23 5.43a0.24 0.24 0 0 1 0.3 -0.06 0.26 0.26 0 0 1 0.13 0.28Z" fill="#5082f6" stroke-width="1"></path></svg>