<svg xmlns="http://www.w3.org/2000/svg" viewBox="0 0 24 24" height="24" width="24" id="File-Sql-1--Streamline-Ultimate.svg"><desc>File Sql 1 Streamline Icon: https://streamlinehq.com</desc><g><path d="M10 11.63a0.88 0.88 0 0 0 -0.88 0.87V15a0.88 0.88 0 0 0 1.76 0v-2.5a0.88 0.88 0 0 0 -0.88 -0.87Z" fill="#010101" stroke-width="1"></path><path d="M20 19v-9a1 1 0 0 0 -1 -1H1a1 1 0 0 0 -1 1v9a1 1 0 0 0 1 1h18a1 1 0 0 0 1 -1ZM4.43 12.87l1.84 1.22a1.94 1.94 0 0 1 -1.07 3.54H3.5a0.63 0.63 0 0 1 0 -1.25h1.7a0.68 0.68 0 0 0 0.37 -1.25l-1.84 -1.22a1.94 1.94 0 0 1 -0.85 -1.61 1.92 1.92 0 0 1 1.92 -1.92h1.7a0.63 0.63 0 0 1 0 1.25H4.8a0.68 0.68 0 0 0 -0.68 0.67 0.69 0.69 0 0 0 0.31 0.57ZM12.12 15a2.09 2.09 0 0 1 -0.83 1.68c-0.08 0.06 -0.21 0.18 -0.08 0.29l0.68 0.54a0.64 0.64 0 0 1 0.1 0.88 0.63 0.63 0 0 1 -0.88 0.1L9.18 17a2.13 2.13 0 0 1 -1.3 -2v-2.5a2.12 2.12 0 0 1 4.24 0Zm4.38 2.63h-2A1.62 1.62 0 0 1 12.88 16v-5a0.62 0.62 0 0 1 1.24 0v5a0.38 0.38 0 0 0 0.38 0.38h2a0.63 0.63 0 0 1 0 1.25Z" fill="#010101" stroke-width="1"></path><path d="M23.71 5.71 18.29 0.29a1 1 0 0 0 -0.7 -0.29H6a2 2 0 0 0 -2 2v5.75a0.25 0.25 0 0 0 0.25 0.25h1.5A0.25 0.25 0 0 0 6 7.75V2.5a0.5 0.5 0 0 1 0.5 -0.5h10.25a0.25 0.25 0 0 1 0.25 0.25V5a2 2 0 0 0 2 2h2.75a0.25 0.25 0 0 1 0.25 0.25V21.5a0.5 0.5 0 0 1 -0.5 0.5H6.25a0.25 0.25 0 0 1 -0.25 -0.25v-0.5a0.25 0.25 0 0 0 -0.25 -0.25h-1.5a0.25 0.25 0 0 0 -0.25 0.25V22a2 2 0 0 0 2 2h16a2 2 0 0 0 2 -2V6.41a1 1 0 0 0 -0.29 -0.7Z" fill="#010101" stroke-width="1"></path></g></svg>