<svg width="363" height="681" viewBox="0 0 363 681" fill="none" xmlns="http://www.w3.org/2000/svg">
<path d="M362.534 0.727385C362.534 0.727385 128.502 -9.47861 191.268 73.1243C254.035 155.727 390.535 245.097 133.035 314.227C-124.465 383.357 56.534 486 150.035 555.727C243.536 625.455 362.534 681 362.534 681V0.727385Z" fill="#F7F7F8"/>
<path d="M362.533 372.634C101.532 362.134 102.342 501.5 361.844 529L362.533 372.634Z" fill="#B7B7FC"/>
<path d="M356 37.5L362.5 37V135.5L362 137L354.5 133L348.5 129.5L341.5 125L335 121L325 115L318.5 110.5L311.5 105.5L305.5 101L300.5 97L294 91.5L290 88L286 83.5L283 79.5L280.5 75.5L278.5 70.5L278 66L278.5 62L279.5 60L281 57.5L283.5 55L288.5 51.5L292.5 49.5L296 48L302 46L307 44.5L313.5 43L324.5 41L331 40L344.5 38.5L356 37.5Z" fill="#B7B7FC"/>
</svg>
