<svg width="367" height="370" viewBox="0 0 367 370" fill="none" xmlns="http://www.w3.org/2000/svg">
<path d="M0 37L22.5 26.5L45 18L62.5 11.5L82 6L102.5 2L120 0H134.5L150 2L162 6L170 11.5L181 21L193.5 37L203.5 52.5L210.5 67L216 80.5L222 92.5L233 116.5L243 134.5L257.5 155L267 166.5L276.5 175.5L284.5 183.5C288.833 186.667 298 193.1 300 193.5C302 193.9 313.833 204.667 319.5 210L332.5 222L343 232.5L350 242.5L358.5 254L364.5 271L366.5 286.5L362 303L345.5 324L323 340.5L295.5 351L267 358.5L242 364L221 366.5L195.5 368.5L169 370L138 368.5H121L101.5 366.5L83.5 364L67 362L51.5 358.5L31 355.5L5.5 348.5H1L0 37Z" fill="#F7F7F7"/>
</svg>
